# xmcd
#
# Track frame offsets:
#  150
#  26049
#  50919
#  75540
#  103443
#  136283
#  165679
#  194890
#
# Disc length: 2938 seconds
#
# Revision: 0
# Processed by: cddbd v1.5.1PL2 Copyright (c) Steve Scherf et al.
# Submitted via: Collectorz.com_Music_Collector 6.9
#
DISCID=770b7808
DTITLE=Melonnee Desiree - Sweet Fire Woman
DYEAR=2002
DGENRE=Alternative
TTITLE0=Cauzin' A Ruckus
TTITLE1=Sweet Fire Woman
TTITLE2=Bringin' Down The Towers
TTITLE3=Miss Sarah T
TTITLE4=Woman
TTITLE5=The Rhythm And The Fire
TTITLE6=Big Bad Man
TTITLE7=The Mountain
EXTD=
EXTT0=
EXTT1=
EXTT2=
EXTT3=
EXTT4=
EXTT5=
EXTT6=
EXTT7=
PLAYORDER=
